<svg xmlns="http://www.w3.org/2000/svg" width="64" height="64" viewBox="0 0 64 64">
  <g fill="none" fill-rule="evenodd">
    <rect width="64" height="64" fill="none"/>
    <circle cx="32" cy="30" r="18" fill="#F6F0DA" opacity=".11"/>
    <circle cx="32" cy="30" r="18" stroke="#D7B868" stroke-width="4"/>
    <circle cx="32" cy="30" r="6" fill="#F6F0DA" stroke="#D7B868" stroke-width="2"/>
    <path d="M32 12v8M32 40v8M14 30h8M42 30h8M20 18l6 6M38 36l6 6M20 42l6-6M38 24l6-6" stroke="#D7B868" stroke-width="3" stroke-linecap="round" opacity=".92"/>
    <path d="M30 48h4v8h-4z" fill="#D7B868"/>
    <path d="M24 51h16l-3 5H27z" fill="#CC8E45"/>
    <path d="M27 44h10l3 6H24z" fill="#9A6A3A"/>
    <path d="M22 18l6 6M42 18l-5 5M24 38l5-5M39 40l4 4" stroke="#B24E3B" stroke-width="2" stroke-linecap="round"/>
  </g>
</svg>
